<svg id="Layer_1" data-name="Layer 1" xmlns="http://www.w3.org/2000/svg" viewBox="0 0 790.99 100.2"><defs><style>.cls-1{fill:#cdcdcd;}.cls-2{fill:#7edf6a;}</style></defs><title>Untitled-1</title><path class="cls-1" d="M0,85.29H62V100.2H0Z"/><rect class="cls-2" x="320.46" y="1.53" width="20.01" height="81.37"/><rect class="cls-2" x="252.53" y="1.53" width="20.01" height="81.37"/><rect class="cls-2" x="286.5" y="34.42" width="20.01" height="48.48"/><path class="cls-1" d="M196.68,84.43q-19.14,0-31.92-12T152,42.18Q152,24,164.73,12t32-12q19,0,31.79,12.07t12.77,30.11q0,18-12.77,30.14T196.68,84.43ZM179.13,59.79a25.53,25.53,0,0,0,35.06,0,23.57,23.57,0,0,0,7.12-17.61,23.47,23.47,0,0,0-7.12-17.57,25.61,25.61,0,0,0-35.06,0A23.42,23.42,0,0,0,172,42.18,23.52,23.52,0,0,0,179.13,59.79Z"/><path class="cls-1" d="M568.7,17.55H531V35.7H559.9V51H531V82.9h-19.5V1.53H568.7Z"/><path class="cls-1" d="M415.19,17.39h-39.8V34.27H406.2V49.55H375.39V66.73h40v16H355.88V1.38h59.31Z"/><path class="cls-1" d="M683.33,84.43a50.32,50.32,0,0,1-20-3.94,37.42,37.42,0,0,1-14.73-10.73V68.23l9.66-11.13h1.34A33.44,33.44,0,0,0,670,64.74a27.57,27.57,0,0,0,12.2,3.12q6,0,9.51-2.17a6.6,6.6,0,0,0,3.51-5.84,6.73,6.73,0,0,0-.67-3,6.52,6.52,0,0,0-1.62-2.17,12.75,12.75,0,0,0-3-1.69c-1.38-.59-2.53-1-3.45-1.31s-2.4-.72-4.43-1.31L677.28,49a68.08,68.08,0,0,1-8.71-3.33A47.7,47.7,0,0,1,660.8,41a19.77,19.77,0,0,1-6.11-7.18A21.38,21.38,0,0,1,652.52,24,21.06,21.06,0,0,1,661,6.69Q669.51,0,683.15,0a45.77,45.77,0,0,1,17.79,3.39,33,33,0,0,1,12.78,8.9v1.34l-9.6,11.07h-1.41q-8.61-8.86-19.26-8.93a14.68,14.68,0,0,0-8,2,6,6,0,0,0-3.09,5.32,6.15,6.15,0,0,0,1,3.39,8.29,8.29,0,0,0,3.08,2.69A33.7,33.7,0,0,0,680.24,31c1.12.44,2.77,1.06,4.93,1.83q13.76,4.39,18.76,7.28,11.25,6.78,11.31,19.62a21.14,21.14,0,0,1-9.13,18.1Q697,84.43,683.33,84.43Z"/><path class="cls-1" d="M765.44,17.55V82.9H745.75V17.55H720.26v-16H791v16Z"/><path class="cls-1" d="M132.27,8.59q-8.19-7.06-23.36-7.06H93v16h16.14a11.43,11.43,0,0,1,8.22,2.93q3.09,2.94,3.09,8.19t-3.09,8.13a11.57,11.57,0,0,1-8.22,2.88H73.52V82.9H93V54.84h15.89q15.28,0,23.42-7.06t8.13-19.6Q140.46,15.65,132.27,8.59Z"/><path class="cls-1" d="M487.29,8.59q-8.19-7.06-23.35-7.06H448v16h16.14a11.43,11.43,0,0,1,8.23,2.93q3.07,2.94,3.08,8.19t-3.08,8.13a11.58,11.58,0,0,1-8.23,2.88H428.54V82.9H448V54.84h15.9q15.29,0,23.41-7.06t8.14-19.6Q495.49,15.65,487.29,8.59Z"/><polygon class="cls-1" points="487.6 66.88 466.57 66.88 475.19 82.9 494.57 82.9 495.49 81.37 487.6 66.88"/><rect class="cls-1" x="592.5" y="1.53" width="42.59" height="16.02"/><rect class="cls-1" x="575.55" y="66.88" width="59.55" height="16.02"/><rect class="cls-1" x="584.78" y="34.42" width="50.32" height="15.28"/></svg>