<?xml version="1.0" encoding="utf-8"?>
<!-- Generator: Adobe Illustrator 23.0.2, SVG Export Plug-In . SVG Version: 6.00 Build 0)  -->
<svg version="1.1" id="Layer_1" xmlns="http://www.w3.org/2000/svg" xmlns:xlink="http://www.w3.org/1999/xlink" x="0px" y="0px"
	 viewBox="0 0 791 100.2" style="enable-background:new 0 0 791 100.2;" xml:space="preserve">
<style type="text/css">
	.st0{fill:#CDCDCD;}
	.st1{animation: col 30s ease infinite;}

	@keyframes col {
	0%,23% {fill:#8af743}
24%,55% {fill:#fafb00}
56%,90% {fill:#ff2cb4}
91%,100% {fill:#8af743}
	}
</style>
<title>Untitled-1</title>
<path class="st0" d="M0,85.3h62v14.9H0V85.3z"/>
<rect x="320.5" y="1.5" class="st1" width="20" height="81.4"/>
<rect x="252.5" y="1.5" class="st1" width="20" height="81.4"/>
<rect x="286.5" y="34.4" class="st1" width="20" height="48.5"/>
<path class="st0" d="M196.7,84.4c-12.8,0-23.4-4-31.9-12c-8.5-8-12.8-18.1-12.8-30.3c0-12.1,4.2-22.2,12.7-30.2s19.2-12,32-12
	c12.7,0,23.3,4,31.8,12.1s12.8,18.1,12.8,30.1c0,12-4.3,22-12.8,30.1S209.4,84.5,196.7,84.4z M179.1,59.8c9.8,9.3,25.2,9.3,35.1,0
	c4.7-4.6,7.3-11,7.1-17.6c0.2-6.6-2.4-13-7.1-17.6c-9.9-9.3-25.2-9.3-35.1,0c-4.7,4.6-7.3,11-7.1,17.6
	C171.8,48.8,174.4,55.2,179.1,59.8z"/>
<path class="st0" d="M568.7,17.5H531v18.2h28.9V51H531v31.9h-19.5V1.5h57.2V17.5z"/>
<path class="st0" d="M415.2,17.4h-39.8v16.9h30.8v15.3h-30.8v17.2h40v16h-59.5V1.4h59.3V17.4z"/>
<path class="st0" d="M683.3,84.4c-6.9,0.1-13.7-1.3-20-3.9c-5.7-2.3-10.8-6-14.7-10.7v-1.5l9.7-11.1h1.3c2.9,3.2,6.5,5.8,10.4,7.6
	c3.8,2,7.9,3,12.2,3.1c4,0,7.2-0.7,9.5-2.2c2.2-1.1,3.5-3.4,3.5-5.8c0-1-0.2-2.1-0.7-3c-0.4-0.8-0.9-1.6-1.6-2.2
	c-0.9-0.7-1.9-1.3-3-1.7c-1.4-0.6-2.5-1-3.5-1.3s-2.4-0.7-4.4-1.3l-4.8-1.4c-3-0.9-5.9-2-8.7-3.3c-2.7-1.3-5.3-2.9-7.8-4.7
	c-2.6-1.9-4.7-4.3-6.1-7.2c-1.5-3.1-2.2-6.4-2.2-9.8c-0.1-6.8,3-13.2,8.5-17.3c5.7-4.5,13.1-6.7,22.2-6.7c6.1-0.1,12.1,1.1,17.8,3.4
	c4.9,1.9,9.3,5,12.8,8.9v1.3l-9.6,11.1h-1.4c-5.7-5.9-12.2-8.9-19.3-8.9c-2.8-0.1-5.6,0.6-8,2c-1.9,1.1-3.1,3.1-3.1,5.3
	c0,1.2,0.3,2.4,1,3.4c0.8,1.1,1.8,2.1,3.1,2.7c1.2,0.7,2.5,1.3,3.8,1.8c1.1,0.4,2.8,1.1,4.9,1.8c9.2,2.9,15.4,5.4,18.8,7.3
	c7.5,4.5,11.3,11.1,11.3,19.6c0.2,7.2-3.2,14-9.1,18.1C700,82.2,692.4,84.4,683.3,84.4z"/>
<path class="st0" d="M132.3,8.6c-5.5-4.7-13.2-7.1-23.4-7.1H93v16h16.1c3-0.1,6,0.9,8.2,2.9c2.1,2,3.1,4.7,3.1,8.2
	c0,3.5-1,6.2-3.1,8.1c-2.3,2-5.2,3-8.2,2.9H73.5v43.2H93V54.8h15.9c10.2,0,18-2.4,23.4-7.1s8.1-11.2,8.1-19.6
	C140.5,19.8,137.7,13.3,132.3,8.6z"/>
<path class="st0" d="M487.3,8.6c-5.5-4.7-13.2-7.1-23.4-7.1H448v16h16.1c3-0.2,6,0.9,8.2,2.9c2,2,3.1,4.7,3.1,8.2s-1,6.2-3.1,8.1
	c-2.3,2-5.2,3-8.2,2.9h-35.6v43.2H448V54.8h15.9c10.2,0,18-2.4,23.4-7.1c5.4-4.7,8.1-11.2,8.1-19.6C495.5,19.8,492.8,13.3,487.3,8.6
	z"/>
<polygon class="st0" points="487.6,66.9 466.6,66.9 475.2,82.9 494.6,82.9 495.5,81.4 "/>
<rect x="592.5" y="1.5" class="st0" width="42.6" height="16"/>
<rect x="575.5" y="66.9" class="st0" width="59.5" height="16"/>
<rect x="584.8" y="34.4" class="st0" width="50.3" height="15.3"/>
<g>
	<polygon class="st0" points="720.3,1.5 720.3,17.5 734.3,17.5 745.8,17.5 765.4,17.5 776.9,17.5 791,17.5 791,1.5 	"/>
	<rect x="745.8" y="34.4" class="st0" width="19.7" height="48.5"/>
</g>
</svg>
